<?xml version="1.0" encoding="UTF-8" standalone="no"?>
<svg viewBox="0 0 50 50"
 xmlns="http://www.w3.org/2000/svg" xmlns:xlink="http://www.w3.org/1999/xlink"  version="1.2" baseProfile="tiny">
<title>Qt SVG Document</title>
<desc>Generated with Qt</desc>
<defs>
</defs>
<g fill="none" stroke="black" stroke-width="1" fill-rule="evenodd" stroke-linecap="square" stroke-linejoin="bevel" >

<g fill="#ffffff" fill-opacity="1" stroke="none" transform="matrix(2.17391,0,0,2.17391,-30.4348,1551.39)"
font-family="Noto Sans" font-size="10" font-weight="400" font-style="normal" 
opacity="0" >
<path vector-effect="none" fill-rule="evenodd" d="M14,-702.138 C14,-708.489 19.1487,-713.638 25.5,-713.638 C31.8513,-713.638 37,-708.489 37,-702.138 C37,-695.787 31.8513,-690.638 25.5,-690.638 C19.1487,-690.638 14,-695.787 14,-702.138 "/>
</g>

<g fill="#d3dae3" fill-opacity="1" stroke="none" transform="matrix(2.17391,0,0,2.17391,-30.4348,1551.39)"
font-family="Noto Sans" font-size="10" font-weight="400" font-style="normal" 
>
<path vector-effect="none" fill-rule="nonzero" d="M21.3535,-706.991 L20.6465,-706.284 L24.793,-702.138 L20.6465,-697.991 L21.3535,-697.284 L25.5,-701.431 L29.6465,-697.284 L30.3535,-697.991 L26.207,-702.138 L30.3535,-706.284 L29.6465,-706.991 L25.5,-702.845 L21.3535,-706.991"/>
</g>

<g fill="none" stroke="#000000" stroke-opacity="1" stroke-width="1" stroke-linecap="square" stroke-linejoin="bevel" transform="matrix(1,0,0,1,0,0)"
font-family="Noto Sans" font-size="10" font-weight="400" font-style="normal" 
>
</g>
</g>
</svg>
