<?xml version="1.0" encoding="UTF-8" standalone="no"?>
<svg viewBox="0 0 50 50"
 xmlns="http://www.w3.org/2000/svg" xmlns:xlink="http://www.w3.org/1999/xlink"  version="1.2" baseProfile="tiny">
<title>Qt SVG Document</title>
<desc>Generated with Qt</desc>
<defs>
</defs>
<g fill="none" stroke="black" stroke-width="1" fill-rule="evenodd" stroke-linecap="square" stroke-linejoin="bevel" >

<g fill="#ffffff" fill-opacity="1" stroke="none" transform="matrix(2.17391,0,0,2.17391,71.7391,1510.08)"
font-family="Noto Sans" font-size="10" font-weight="400" font-style="normal" 
opacity="0.15" >
<path vector-effect="none" fill-rule="evenodd" d="M-33,-683.138 C-33,-689.489 -27.8513,-694.638 -21.5,-694.638 C-15.1487,-694.638 -10,-689.489 -10,-683.138 C-10,-676.787 -15.1487,-671.638 -21.5,-671.638 C-27.8513,-671.638 -33,-676.787 -33,-683.138 "/>
</g>

<g fill="#d3dae3" fill-opacity="1" stroke="none" transform="matrix(2.17391,0,0,2.17391,71.7391,1510.08)"
font-family="Noto Sans" font-size="10" font-weight="400" font-style="normal" 
>
<path vector-effect="none" fill-rule="nonzero" d="M-26,-687.638 L-26,-678.638 L-17,-678.638 L-17,-687.638 L-26,-687.638 M-25,-686.638 L-18,-686.638 L-18,-679.638 L-25,-679.638 L-25,-686.638"/>
</g>

<g fill="none" stroke="#000000" stroke-opacity="1" stroke-width="1" stroke-linecap="square" stroke-linejoin="bevel" transform="matrix(1,0,0,1,0,0)"
font-family="Noto Sans" font-size="10" font-weight="400" font-style="normal" 
>
</g>
</g>
</svg>
