<?xml version="1.0" encoding="UTF-8" standalone="no"?>
<svg viewBox="0 0 50 50"
 xmlns="http://www.w3.org/2000/svg" xmlns:xlink="http://www.w3.org/1999/xlink"  version="1.2" baseProfile="tiny">
<title>Qt SVG Document</title>
<desc>Generated with Qt</desc>
<defs>
</defs>
<g fill="none" stroke="black" stroke-width="1" fill-rule="evenodd" stroke-linecap="square" stroke-linejoin="bevel" >

<g fill="#ffffff" fill-opacity="1" stroke="none" transform="matrix(2.17391,0,0,2.17391,-104.348,1510.08)"
font-family="Noto Sans" font-size="10" font-weight="400" font-style="normal" 
opacity="0.25" >
<path vector-effect="none" fill-rule="evenodd" d="M48,-683.138 C48,-689.489 53.1487,-694.638 59.5,-694.638 C65.8513,-694.638 71,-689.489 71,-683.138 C71,-676.787 65.8513,-671.638 59.5,-671.638 C53.1487,-671.638 48,-676.787 48,-683.138 "/>
</g>

<g fill="#d3dae3" fill-opacity="1" stroke="none" transform="matrix(2.17391,0,0,2.17391,-104.348,1510.08)"
font-family="Noto Sans" font-size="10" font-weight="400" font-style="normal" 
>
<path vector-effect="none" fill-rule="nonzero" d="M57,-687.638 L57,-685.638 L55,-685.638 L55,-678.638 L62,-678.638 L62,-680.638 L64,-680.638 L64,-687.638 L57,-687.638 M58,-686.638 L63,-686.638 L63,-681.638 L62,-681.638 L62,-685.638 L58,-685.638 L58,-686.638 M56,-684.638 L61,-684.638 L61,-679.638 L56,-679.638 L56,-684.638"/>
</g>

<g fill="none" stroke="#000000" stroke-opacity="1" stroke-width="1" stroke-linecap="square" stroke-linejoin="bevel" transform="matrix(1,0,0,1,0,0)"
font-family="Noto Sans" font-size="10" font-weight="400" font-style="normal" 
>
</g>
</g>
</svg>
