<?xml version="1.0" encoding="UTF-8" standalone="no"?>
<svg viewBox="0 0 50 50"
 xmlns="http://www.w3.org/2000/svg" xmlns:xlink="http://www.w3.org/1999/xlink"  version="1.2" baseProfile="tiny">
<title>Qt SVG Document</title>
<desc>Generated with Qt</desc>
<defs>
</defs>
<g fill="none" stroke="black" stroke-width="1" fill-rule="evenodd" stroke-linecap="square" stroke-linejoin="bevel" >

<g fill="#ffffff" fill-opacity="1" stroke="none" transform="matrix(2.17391,0,0,2.17391,-30.4348,1629.65)"
font-family="Noto Sans" font-size="10" font-weight="400" font-style="normal" 
opacity="0" >
<path vector-effect="none" fill-rule="evenodd" d="M14,-738.138 C14,-744.489 19.1487,-749.638 25.5,-749.638 C31.8513,-749.638 37,-744.489 37,-738.138 C37,-731.787 31.8513,-726.638 25.5,-726.638 C19.1487,-726.638 14,-731.787 14,-738.138 "/>
</g>

<g fill="#d3dae3" fill-opacity="1" stroke="none" transform="matrix(2.17391,0,0,2.17391,-30.4348,1629.65)"
font-family="Noto Sans" font-size="10" font-weight="400" font-style="normal" 
opacity="0.5" >
<path vector-effect="none" fill-rule="nonzero" d="M21.3535,-742.991 L20.6465,-742.284 L24.793,-738.138 L20.6465,-733.991 L21.3535,-733.284 L25.5,-737.431 L29.6465,-733.284 L30.3535,-733.991 L26.207,-738.138 L30.3535,-742.284 L29.6465,-742.991 L25.5,-738.845 L21.3535,-742.991"/>
</g>

<g fill="none" stroke="#000000" stroke-opacity="1" stroke-width="1" stroke-linecap="square" stroke-linejoin="bevel" transform="matrix(1,0,0,1,0,0)"
font-family="Noto Sans" font-size="10" font-weight="400" font-style="normal" 
>
</g>
</g>
</svg>
